<svg width="16" height="16" viewBox="0 0 16 16" fill="none" xmlns="http://www.w3.org/2000/svg">
<g clip-path="url(#clip0_577_11925)">
<path d="M13.76 2.43246L14.2056 1.98705L14.2055 1.98699L13.76 2.43246ZM13.644 4.63665L14.0895 5.08217L14.0895 5.08213L13.644 4.63665ZM13.1758 4.97501L12.8954 4.41089L12.8953 4.4109L13.1758 4.97501ZM12.9376 5.78639L12.492 6.23174L12.4921 6.23186L12.9376 5.78639ZM12.2505 10.2051L11.6267 10.2934C11.6602 10.5298 11.8244 10.727 12.0509 10.8026C12.2774 10.8783 12.5272 10.8194 12.696 10.6506L12.2505 10.2051ZM11.7879 9.27565L12.2334 8.83018L12.2333 8.83013L11.7879 9.27565ZM9.46768 9.27565L9.02222 8.83016L9.0222 8.83018L9.46768 9.27565ZM9.46768 11.5958L9.02216 12.0413L9.0222 12.0413L9.46768 11.5958ZM10.3978 12.0578L10.8433 12.5033C11.0122 12.3344 11.071 12.0846 10.9953 11.8581C10.9196 11.6316 10.7223 11.4673 10.4858 11.434L10.3978 12.0578ZM5.16565 12.9838L5.7296 13.2647L5.72961 13.2646L5.16565 12.9838ZM4.82729 13.452L5.27267 13.8976L5.27277 13.8975L4.82729 13.452ZM2.62449 13.568L2.17901 14.0135L2.17916 14.0136L2.62449 13.568ZM2.73981 11.3645L2.29433 10.919L2.29423 10.9191L2.73981 11.3645ZM3.20799 11.0262L2.92719 10.4622L2.92717 10.4622L3.20799 11.0262ZM4.134 5.79398L4.75782 5.70602C4.72448 5.46953 4.56027 5.27223 4.33376 5.19649C4.10726 5.12076 3.8574 5.17963 3.68852 5.34851L4.134 5.79398ZM4.59596 6.72413L4.15049 7.16961L4.15051 7.16964L4.59596 6.72413ZM6.91616 6.72413L7.36163 7.16961L7.36166 7.16959L6.91616 6.72413ZM6.91616 4.40394L7.36166 3.95849L7.36163 3.95846L6.91616 4.40394ZM5.9867 3.94128L5.54122 3.4958C5.37237 3.66465 5.3135 3.91444 5.38917 4.14092C5.46484 4.3674 5.66204 4.53163 5.89848 4.56507L5.9867 3.94128ZM10.4061 3.25489L9.96064 3.70037L9.96118 3.70091L10.4061 3.25489ZM11.2175 3.01666L11.7814 3.29766L11.7815 3.29728L11.2175 3.01666ZM11.5559 2.54847L11.1104 2.103L11.1103 2.10304L11.5559 2.54847ZM13.76 2.43246L13.3145 2.87787C13.6021 3.16552 13.6383 3.75138 13.1986 4.19117L13.644 4.63665L14.0895 5.08213C14.9309 4.24075 15.0709 2.85259 14.2056 1.98705L13.76 2.43246ZM13.644 4.63665L13.1986 4.19113C13.1044 4.28531 13.0013 4.35822 12.8954 4.41089L13.1758 4.97501L13.4563 5.53913C13.6857 5.42511 13.8999 5.2717 14.0895 5.08217L13.644 4.63665ZM13.1758 4.97501L12.8953 4.4109C12.5751 4.57013 12.3666 4.87242 12.274 5.15319C12.1844 5.42491 12.1453 5.88482 12.492 6.23174L12.9376 5.78639L13.3832 5.34104C13.444 5.40188 13.465 5.47033 13.4699 5.51021C13.4742 5.5449 13.4673 5.55779 13.4706 5.54789C13.4734 5.53951 13.4791 5.52874 13.485 5.52137C13.4918 5.51285 13.4858 5.52449 13.4564 5.53911L13.1758 4.97501ZM12.9376 5.78639L12.4921 6.23186L13.1979 6.93759L13.6433 6.49211L14.0888 6.04664L13.3831 5.34091L12.9376 5.78639ZM13.6433 6.49211L13.1979 6.93759C13.5925 7.3322 13.5925 7.97222 13.1979 8.36683L13.6433 8.81231L14.0888 9.25778C14.9755 8.37112 14.9755 6.9333 14.0888 6.04664L13.6433 6.49211ZM13.6433 8.81231L13.1979 8.36683L11.8051 9.75964L12.2505 10.2051L12.696 10.6506L14.0888 9.25778L13.6433 8.81231ZM12.2505 10.2051L12.8743 10.1169C12.8081 9.6485 12.5961 9.19289 12.2334 8.83018L11.7879 9.27565L11.3424 9.72113C11.5025 9.88123 11.5968 10.082 11.6267 10.2934L12.2505 10.2051ZM11.7879 9.27565L12.2333 8.83013C11.3467 7.94369 9.90888 7.94359 9.02222 8.83016L9.46768 9.27565L9.91314 9.72115C10.3077 9.32664 10.9478 9.32663 11.3424 9.72118L11.7879 9.27565ZM9.46768 9.27565L9.0222 8.83018C8.13553 9.71685 8.13572 11.1547 9.02216 12.0413L9.46768 11.5958L9.9132 11.1504C9.51861 10.7557 9.51864 10.1157 9.91316 9.72113L9.46768 9.27565ZM9.46768 11.5958L9.0222 12.0413C9.38578 12.4049 9.84205 12.6157 10.3098 12.6816L10.3978 12.0578L10.4858 11.434C10.2734 11.404 10.0727 11.31 9.91316 11.1504L9.46768 11.5958ZM10.3978 12.0578L9.95235 11.6123L8.55816 13.0065L9.00364 13.452L9.44912 13.8975L10.8433 12.5033L10.3978 12.0578ZM9.00364 13.452L8.55816 13.0065C8.16356 13.4011 7.52353 13.4011 7.12892 13.0065L6.68345 13.452L6.23797 13.8975C7.12464 14.7841 8.56245 14.7841 9.44912 13.8975L9.00364 13.452ZM6.68345 13.452L7.12892 13.0065L6.4232 12.3008L5.97772 12.7463L5.53224 13.1918L6.23797 13.8975L6.68345 13.452ZM5.97772 12.7463L6.4232 12.3008C6.07654 11.9541 5.61668 11.9928 5.34495 12.0821C5.06415 12.1744 4.76127 12.3825 4.6017 12.703L5.16565 12.9838L5.72961 13.2646C5.71487 13.2942 5.7031 13.3003 5.71161 13.2936C5.71896 13.2877 5.72977 13.2819 5.73825 13.2792C5.74825 13.2759 5.73554 13.2827 5.70105 13.2784C5.66142 13.2735 5.59307 13.2526 5.53224 13.1918L5.97772 12.7463ZM5.16565 12.9838L4.60171 12.703C4.54872 12.8094 4.47577 12.9126 4.38181 13.0065L4.82729 13.452L5.27277 13.8975C5.46256 13.7077 5.61568 13.4934 5.7296 13.2647L5.16565 12.9838ZM4.82729 13.452L4.38191 13.0064C3.94209 13.4461 3.35736 13.4097 3.06981 13.1224L2.62449 13.568L2.17916 14.0136C3.04468 14.8786 4.43144 14.7384 5.27267 13.8976L4.82729 13.452ZM2.62449 13.568L3.06997 13.1225C2.78226 12.8348 2.74588 12.2496 3.18538 11.8099L2.73981 11.3645L2.29423 10.9191C1.45302 11.7607 1.31374 13.1482 2.17901 14.0135L2.62449 13.568ZM2.73981 11.3645L3.18529 11.81C3.27924 11.716 3.38241 11.6431 3.48881 11.5901L3.20799 11.0262L2.92717 10.4622C2.69839 10.5761 2.48412 10.7293 2.29433 10.919L2.73981 11.3645ZM3.20799 11.0262L3.48879 11.5901C3.80927 11.4306 4.01744 11.1277 4.1097 10.8469C4.19898 10.5751 4.23767 10.1153 3.89101 9.76861L3.44553 10.2141L3.00006 10.6596C2.93923 10.5987 2.9183 10.5304 2.91339 10.4908C2.90912 10.4563 2.91594 10.4436 2.91266 10.4536C2.90987 10.4621 2.90408 10.4729 2.89825 10.4802C2.89149 10.4887 2.89759 10.4769 2.92719 10.4622L3.20799 11.0262ZM3.44553 10.2141L3.89101 9.76861L3.18529 9.06289L2.73981 9.50836L2.29433 9.95384L3.00006 10.6596L3.44553 10.2141ZM2.73981 9.50836L3.18529 9.06289C2.79068 8.66828 2.79068 8.02826 3.18529 7.63365L2.73981 7.18817L2.29433 6.74269C1.40766 7.62936 1.40766 9.06717 2.29433 9.95384L2.73981 9.50836ZM2.73981 7.18817L3.18529 7.63365L4.57947 6.23946L4.134 5.79398L3.68852 5.34851L2.29433 6.74269L2.73981 7.18817ZM4.134 5.79398L3.51017 5.88194C3.57613 6.34979 3.7869 6.80603 4.15049 7.16961L4.59596 6.72413L5.04144 6.27865C4.88183 6.11905 4.78778 5.91843 4.75782 5.70602L4.134 5.79398ZM4.59596 6.72413L4.15051 7.16964C5.03715 8.05617 6.47496 8.05628 7.36163 7.16961L6.91616 6.72413L6.47068 6.27865C6.07612 6.67321 5.43606 6.67323 5.04141 6.27863L4.59596 6.72413ZM6.91616 6.72413L7.36166 7.16959C8.24822 6.28294 8.2482 4.84513 7.36166 3.95849L6.91616 4.40394L6.47065 4.84939C6.86521 5.24399 6.86521 5.88409 6.47066 6.27868L6.91616 6.72413ZM6.91616 4.40394L7.36163 3.95846C6.99891 3.59574 6.54334 3.38374 6.07492 3.31749L5.9867 3.94128L5.89848 4.56507C6.10983 4.59496 6.31056 4.6893 6.47068 4.84942L6.91616 4.40394ZM5.9867 3.94128L6.43218 4.38676L7.82498 2.99395L7.37951 2.54847L6.93403 2.103L5.54122 3.4958L5.9867 3.94128ZM7.37951 2.54847L7.82498 2.99395C8.21959 2.59934 8.85961 2.59934 9.25422 2.99395L9.6997 2.54847L10.1452 2.103C9.25851 1.21633 7.8207 1.21633 6.93403 2.103L7.37951 2.54847ZM9.6997 2.54847L9.25422 2.99395L9.96064 3.70037L10.4061 3.25489L10.8516 2.80941L10.1452 2.103L9.6997 2.54847ZM10.4061 3.25489L9.96118 3.70091C10.3081 4.04702 10.7677 4.00784 11.0392 3.91828C11.3199 3.82573 11.622 3.61745 11.7814 3.29766L11.2175 3.01666L10.6536 2.73565C10.6682 2.70634 10.6798 2.7004 10.6713 2.70721C10.6638 2.71311 10.653 2.7189 10.6446 2.72169C10.6346 2.72497 10.6474 2.71812 10.682 2.72236C10.7218 2.72724 10.7902 2.74813 10.851 2.80887L10.4061 3.25489ZM11.2175 3.01666L11.7815 3.29728C11.8343 3.19125 11.9073 3.08798 12.0014 2.99391L11.5559 2.54847L11.1103 2.10304C10.9208 2.29264 10.7674 2.50703 10.6534 2.73603L11.2175 3.01666ZM11.5559 2.54847L12.0013 2.99395C12.4412 2.55403 13.027 2.59039 13.3146 2.87794L13.76 2.43246L14.2055 1.98699C13.3399 1.12139 11.9517 1.26164 11.1104 2.103L11.5559 2.54847Z" fill="white"/>
</g>
<defs>
<clipPath id="clip0_577_11925">
<rect width="16" height="16" fill="white"/>
</clipPath>
</defs>
</svg>
