<svg width="16" height="16" viewBox="0 0 16 16" fill="none" xmlns="http://www.w3.org/2000/svg">
<path d="M10.2023 11.0876C10.3416 10.6696 10.6697 10.3415 11.0877 10.2022L13.7235 9.32357L6.46377 6.46367L9.32367 13.7234L10.2023 11.0876ZM6.23915 4.94212L15.0658 8.41927C15.9349 8.76167 15.9017 10.003 15.0155 10.2984L11.5093 11.4671C11.4894 11.4737 11.4738 11.4893 11.4672 11.5092L10.2985 15.0154C10.0031 15.9016 8.76177 15.9348 8.41937 15.0657L4.94222 6.23905C4.62181 5.42569 5.42579 4.62171 6.23915 4.94212Z" fill="white"/>
<path d="M7.21676 4.01012L8.83313 4.63871C8.56302 2.88007 7.04336 1.53326 5.20915 1.53326C3.1841 1.53326 1.54248 3.17489 1.54248 5.19993C1.54248 7.02933 2.88223 8.54582 4.63409 8.82176L4.00274 7.19759C3.32728 6.78879 2.87581 6.04708 2.87581 5.19993C2.87581 3.91127 3.92048 2.8666 5.20915 2.8666C6.06322 2.8666 6.81012 3.32547 7.21676 4.01012Z" fill="white"/>
</svg>
