<svg width="30" height="19" viewBox="0 0 30 19" fill="none" xmlns="http://www.w3.org/2000/svg">
<path opacity="0.11" d="M29.3121 0.187636L28.4244 3.64849C26.8257 3.56509 25.597 3.78748 24.7383 4.31564C23.8796 4.8438 23.3007 5.56655 23.0018 6.48388C22.7028 7.40122 22.5732 8.41584 22.6128 9.52776H28.6589L28 18.9513H16.4948L17.2412 8.27685C17.4453 5.35806 18.5967 3.16202 20.6956 1.68873C22.8355 0.187637 25.7077 -0.312728 29.3121 0.187636ZM12.8173 0.187636L11.9296 3.64849C10.331 3.56509 9.10228 3.78748 8.24354 4.31564C7.38481 4.8438 6.80597 5.56655 6.50702 6.48388C6.20807 7.40122 6.07842 8.41584 6.11807 9.52776H12.1642L11.5052 18.9513H-7.30878e-06L0.746421 8.27685C0.950523 5.35806 2.10199 3.16202 4.20082 1.68873C6.34072 0.187637 9.21289 -0.312728 12.8173 0.187636Z" fill="#302824"/>
</svg>
